<svg width="152" height="48" viewBox="0 0 152 48" fill="none" xmlns="http://www.w3.org/2000/svg">
<g clip-path="url(#clip0_62_2697)">
<path d="M60.9025 14.2306H57.1367V11.6782H67.5736V14.2306H63.8079V24.7722H60.9008V14.2306H60.9025Z" fill="#333333"/>
<path d="M75.1982 23.2175C74.751 23.7849 74.1859 24.2219 73.5014 24.5301C72.8186 24.8384 72.1102 24.9925 71.3761 24.9925C70.6797 24.9925 70.0241 24.8807 69.4096 24.6588C68.7951 24.437 68.2608 24.1203 67.8067 23.707C67.3526 23.2937 66.9958 22.7975 66.7347 22.2182C66.4735 21.639 66.3438 20.992 66.3438 20.2773C66.3438 19.5625 66.4735 18.9155 66.7347 18.3363C66.9958 17.757 67.3526 17.2608 67.8067 16.8475C68.2608 16.4343 68.7951 16.1175 69.4096 15.8957C70.0241 15.6738 70.6797 15.562 71.3761 15.562C72.0214 15.562 72.6086 15.6738 73.1378 15.8957C73.6653 16.1175 74.1125 16.4343 74.4795 16.8475C74.8466 17.2608 75.1282 17.757 75.3279 18.3363C75.526 18.9155 75.6267 19.5625 75.6267 20.2773V21.1461H69.1399C69.2526 21.6763 69.4933 22.098 69.8671 22.413C70.2392 22.728 70.7001 22.8838 71.2464 22.8838C71.7056 22.8838 72.0948 22.7822 72.4106 22.579C72.7264 22.3757 73.0029 22.1132 73.2402 21.7931L75.1982 23.2175ZM72.8305 19.261C72.8425 18.7919 72.6871 18.3922 72.3645 18.0585C72.0419 17.7266 71.6254 17.5589 71.1149 17.5589C70.8043 17.5589 70.5311 17.608 70.2956 17.7062C70.06 17.8045 69.8569 17.9315 69.6896 18.0856C69.5223 18.2397 69.3908 18.4176 69.2987 18.6225C69.2065 18.8275 69.1518 19.0392 69.1399 19.261H72.8305Z" fill="#333333"/>
<path d="M77.3594 10.7908H80.1555V24.7705H77.3594V10.7908Z" fill="#333333"/>
<path d="M90.7431 23.2175C90.2959 23.7849 89.7309 24.2219 89.0463 24.5301C88.3635 24.8384 87.6551 24.9925 86.921 24.9925C86.2246 24.9925 85.5691 24.8807 84.9545 24.6588C84.34 24.437 83.8057 24.1203 83.3516 23.707C82.8975 23.2937 82.5408 22.7975 82.2796 22.2182C82.0184 21.639 81.8887 20.992 81.8887 20.2773C81.8887 19.5625 82.0184 18.9155 82.2796 18.3363C82.5408 17.757 82.8975 17.2608 83.3516 16.8475C83.8057 16.4343 84.34 16.1175 84.9545 15.8957C85.5691 15.6738 86.2246 15.562 86.921 15.562C87.5663 15.562 88.1535 15.6738 88.6827 15.8957C89.2102 16.1175 89.6574 16.4343 90.0245 16.8475C90.3915 17.2608 90.6731 17.757 90.8729 18.3363C91.0709 18.9155 91.1716 19.5625 91.1716 20.2773V21.1461H84.6848C84.7975 21.6763 85.0382 22.098 85.412 22.413C85.7842 22.728 86.2451 22.8838 86.7913 22.8838C87.2505 22.8838 87.6397 22.7822 87.9555 22.579C88.2713 22.3757 88.5479 22.1132 88.7852 21.7931L90.7431 23.2175ZM88.3755 19.261C88.3874 18.7919 88.2321 18.3922 87.9094 18.0585C87.5868 17.7266 87.1703 17.5589 86.6599 17.5589C86.3492 17.5589 86.0761 17.608 85.8405 17.7062C85.6049 17.8045 85.4018 17.9315 85.2345 18.0856C85.0672 18.2397 84.9358 18.4176 84.8436 18.6225C84.7514 18.8275 84.6968 19.0392 84.6848 19.261H88.3755Z" fill="#333333"/>
<path d="M96.9289 21.2764H92.3438V19.0576H96.9289V21.2764Z" fill="#333333"/>
<path d="M105.149 25.1041C104.142 25.1041 103.217 24.9279 102.372 24.5773C101.527 24.2267 100.803 23.7424 100.2 23.1259C99.5979 22.5093 99.125 21.7828 98.7836 20.9444C98.4422 20.106 98.2715 19.1999 98.2715 18.226C98.2715 17.2521 98.4422 16.346 98.7836 15.5076C99.125 14.6692 99.5979 13.9426 100.2 13.3261C100.803 12.7096 101.527 12.2252 102.372 11.8746C103.217 11.5224 104.142 11.3479 105.149 11.3479C106.156 11.3479 107.082 11.524 107.927 11.8746C108.772 12.2252 109.495 12.7096 110.098 13.3261C110.701 13.9426 111.173 14.6692 111.515 15.5076C111.856 16.346 112.027 17.2521 112.027 18.226C112.027 19.1999 111.856 20.106 111.515 20.9444C111.173 21.7828 110.701 22.511 110.098 23.1259C109.495 23.7424 108.772 24.2267 107.927 24.5773C107.082 24.9279 106.156 25.1041 105.149 25.1041ZM105.149 23.4392C105.907 23.4392 106.59 23.3003 107.199 23.0225C107.809 22.7448 108.329 22.3722 108.765 21.903C109.2 21.4338 109.535 20.8834 109.772 20.2483C110.007 19.6131 110.125 18.939 110.125 18.2226C110.125 17.5079 110.007 16.8321 109.772 16.1969C109.536 15.5618 109.2 15.0097 108.765 14.5422C108.329 14.0731 107.807 13.7004 107.199 13.4227C106.59 13.1449 105.907 13.006 105.149 13.006C104.391 13.006 103.707 13.1449 103.099 13.4227C102.49 13.7004 101.969 14.0731 101.534 14.5422C101.098 15.0114 100.764 15.5618 100.526 16.1969C100.291 16.8321 100.171 17.5062 100.171 18.2226C100.171 18.9373 100.289 19.6131 100.526 20.2483C100.762 20.8834 101.098 21.4355 101.534 21.903C101.969 22.3722 102.49 22.7448 103.099 23.0225C103.708 23.3003 104.391 23.4392 105.149 23.4392Z" fill="#333333"/>
<path d="M114.172 16.0056H115.85V17.2623H115.887C116.21 16.7948 116.654 16.4307 117.221 16.1715C117.786 15.9124 118.366 15.7837 118.964 15.7837C119.646 15.7837 120.264 15.9006 120.817 16.1343C121.37 16.368 121.842 16.6949 122.234 17.1149C122.625 17.535 122.927 18.0244 123.139 18.5851C123.351 19.1457 123.457 19.7469 123.457 20.3888C123.457 21.0426 123.351 21.649 123.139 22.2096C122.927 22.7702 122.627 23.258 122.234 23.6695C121.843 24.0828 121.37 24.4063 120.817 24.64C120.264 24.8738 119.646 24.9923 118.964 24.9923C118.33 24.9923 117.733 24.8602 117.175 24.5943C116.616 24.3284 116.186 23.9693 115.889 23.512H115.852V29.9853H114.174V16.0056H114.172ZM118.757 17.3368C118.31 17.3368 117.905 17.4147 117.545 17.5672C117.185 17.7213 116.881 17.9313 116.632 18.1955C116.383 18.4614 116.191 18.7815 116.055 19.1575C115.918 19.5335 115.85 19.9434 115.85 20.3871C115.85 20.8309 115.918 21.2408 116.055 21.6168C116.191 21.9928 116.384 22.3129 116.632 22.5788C116.881 22.8447 117.185 23.053 117.545 23.2072C117.905 23.3613 118.31 23.4392 118.757 23.4392C119.204 23.4392 119.609 23.363 119.969 23.2072C120.329 23.053 120.633 22.843 120.882 22.5788C121.132 22.3146 121.323 21.9928 121.459 21.6168C121.596 21.2408 121.664 20.8309 121.664 20.3871C121.664 19.9434 121.596 19.5335 121.459 19.1575C121.323 18.7815 121.13 18.4614 120.882 18.1955C120.633 17.9313 120.329 17.7213 119.969 17.5672C119.607 17.4147 119.204 17.3368 118.757 17.3368Z" fill="#333333"/>
<path d="M130.292 17.4487H127.889V21.4254C127.889 21.6727 127.896 21.9149 127.908 22.1554C127.919 22.3959 127.966 22.611 128.047 22.8024C128.128 22.9938 128.252 23.1479 128.42 23.2648C128.587 23.3817 128.833 23.4409 129.155 23.4409C129.353 23.4409 129.558 23.4223 129.77 23.3851C129.982 23.3478 130.174 23.28 130.347 23.1818V24.6977C130.147 24.8095 129.891 24.8857 129.574 24.928C129.256 24.9703 129.012 24.9924 128.838 24.9924C128.191 24.9924 127.692 24.9026 127.337 24.7248C126.984 24.5469 126.723 24.3149 126.556 24.032C126.388 23.7492 126.288 23.4308 126.257 23.0802C126.226 22.7279 126.211 22.3739 126.211 22.0165V17.4487H124.271V16.0056H126.211V13.5464H127.889V16.0056H130.292V17.4487Z" fill="#333333"/>
<path d="M132.193 12.8623C132.193 12.5303 132.315 12.2424 132.557 12.0019C132.799 11.7614 133.088 11.6411 133.424 11.6411C133.759 11.6411 134.049 11.7614 134.291 12.0019C134.534 12.2424 134.655 12.5286 134.655 12.8623C134.655 13.1959 134.534 13.4822 134.291 13.7227C134.049 13.9632 133.76 14.0834 133.424 14.0834C133.088 14.0834 132.799 13.9632 132.557 13.7227C132.315 13.4822 132.193 13.1942 132.193 12.8623ZM132.584 16.0058H134.262V24.7706H132.584V16.0058Z" fill="#333333"/>
<path d="M143.248 18.3363C142.938 18.0162 142.611 17.7723 142.27 17.6063C141.929 17.4403 141.521 17.3573 141.05 17.3573C140.59 17.3573 140.189 17.4403 139.848 17.6063C139.506 17.7723 139.22 18.0009 138.991 18.2905C138.76 18.5802 138.586 18.9138 138.468 19.2898C138.351 19.6658 138.291 20.0571 138.291 20.4636C138.291 20.87 138.359 21.2562 138.496 21.6187C138.632 21.9828 138.825 22.2995 139.073 22.5705C139.322 22.8415 139.619 23.0549 139.967 23.209C140.315 23.3632 140.706 23.4411 141.142 23.4411C141.615 23.4411 142.017 23.3581 142.354 23.1921C142.688 23.0261 142.999 22.7822 143.286 22.4621L144.479 23.646C144.044 24.127 143.538 24.4725 142.96 24.6809C142.381 24.8892 141.77 24.9959 141.125 24.9959C140.442 24.9959 139.817 24.8841 139.252 24.6622C138.687 24.4403 138.199 24.1287 137.789 23.729C137.379 23.3293 137.062 22.8483 136.838 22.286C136.615 21.7254 136.502 21.1055 136.502 20.428C136.502 19.7505 136.615 19.1272 136.838 18.5598C137.062 17.9925 137.376 17.5064 137.779 17.0982C138.182 16.6917 138.666 16.3733 139.233 16.1463C139.798 15.9177 140.428 15.8042 141.125 15.8042C141.77 15.8042 142.39 15.9177 142.978 16.1463C143.569 16.375 144.081 16.7222 144.517 17.1913L143.248 18.3363Z" fill="#333333"/>
<path d="M150.61 18.2057C150.41 17.9584 150.166 17.7517 149.874 17.5858C149.582 17.4198 149.225 17.3368 148.802 17.3368C148.404 17.3368 148.059 17.4198 147.768 17.5858C147.476 17.7517 147.329 17.9956 147.329 18.3157C147.329 18.5749 147.412 18.7849 147.58 18.9441C147.747 19.105 147.947 19.2337 148.176 19.332C148.406 19.4302 148.65 19.5047 148.911 19.5538C149.172 19.603 149.396 19.647 149.582 19.6826C149.942 19.7689 150.28 19.8739 150.598 19.9976C150.915 20.1212 151.188 20.2804 151.417 20.4786C151.648 20.6768 151.827 20.9156 151.958 21.2001C152.088 21.4846 152.155 21.8285 152.155 22.235C152.155 22.7278 152.049 23.1512 151.837 23.5018C151.625 23.8541 151.352 24.1404 151.018 24.3622C150.681 24.5841 150.301 24.745 149.872 24.8432C149.444 24.9415 149.012 24.9906 148.577 24.9906C147.843 24.9906 147.201 24.8788 146.648 24.6569C146.095 24.4351 145.601 24.0286 145.166 23.4358L146.433 22.4009C146.706 22.6719 147.01 22.9124 147.346 23.1225C147.682 23.3325 148.092 23.4375 148.577 23.4375C148.788 23.4375 149.002 23.4155 149.22 23.3731C149.437 23.3308 149.63 23.2613 149.797 23.1699C149.965 23.0767 150.101 22.9599 150.207 22.8176C150.313 22.6753 150.366 22.5127 150.366 22.3281C150.366 22.0808 150.287 21.8776 150.132 21.7184C149.976 21.5575 149.79 21.4321 149.572 21.339C149.355 21.2458 149.125 21.173 148.882 21.1171C148.64 21.0612 148.426 21.0155 148.239 20.9782C147.879 20.8918 147.537 20.7936 147.213 20.6818C146.89 20.57 146.603 20.4227 146.356 20.2381C146.107 20.0535 145.909 19.8197 145.76 19.5352C145.612 19.2524 145.536 18.9001 145.536 18.4817C145.536 18.0261 145.632 17.6281 145.825 17.2894C146.018 16.9506 146.272 16.6695 146.59 16.4476C146.907 16.2257 147.267 16.0597 147.67 15.948C148.073 15.8362 148.481 15.782 148.891 15.782C149.487 15.782 150.058 15.8938 150.605 16.1139C151.151 16.3358 151.586 16.705 151.909 17.2233L150.61 18.2057Z" fill="#333333"/>
<path d="M57.9785 32.8936H58.7159L59.6377 35.6475L60.5681 32.8936H61.3055L61.973 36.8416H61.2406L60.8139 34.3484L59.9689 36.8416H59.3014L58.4633 34.3484L58.0263 36.8416H57.2871L57.9785 32.8936Z" fill="#5499D1"/>
<path d="M63.7927 32.8936H64.5609L66.0921 36.8416H65.3051L64.9945 36.0286H63.3711L63.0467 36.8416H62.2598L63.7927 32.8936ZM64.1802 33.9403L63.6459 35.2952H64.7111L64.1802 33.9403Z" fill="#5499D1"/>
<path d="M66.6738 32.8936H68.6489V33.6286H67.4266V36.8416H66.6738V32.8936Z" fill="#5499D1"/>
<path d="M70.4548 32.8936H71.223L72.7542 36.8416H71.9672L71.6566 36.0286H70.0332L69.7088 36.8416H68.9219L70.4548 32.8936ZM70.844 33.9403L70.3097 35.2952H71.3749L70.844 33.9403Z" fill="#5499D1"/>
<path d="M73.5274 35.8135C73.7289 36.0913 73.9627 36.2301 74.2324 36.2301C74.4117 36.2301 74.5568 36.1793 74.666 36.0794C74.7753 35.9795 74.8316 35.8457 74.8316 35.6797C74.8316 35.5171 74.7787 35.3816 74.6711 35.2749C74.5636 35.1682 74.3417 35.114 74.0037 35.114H73.8415V34.4433H74.0037C74.2034 34.4433 74.3553 34.3976 74.4595 34.3061C74.5636 34.2146 74.6148 34.0927 74.6148 33.9386C74.6148 33.798 74.5721 33.6845 74.4851 33.6032C74.398 33.5219 74.2836 33.4796 74.1402 33.4796C73.9695 33.4796 73.7954 33.5626 73.6162 33.7286L73.1689 33.234C73.4096 33.0189 73.6094 32.8902 73.7698 32.8495C73.9303 32.8072 74.0788 32.7869 74.2136 32.7869C74.5397 32.7869 74.8111 32.88 75.033 33.068C75.2549 33.256 75.3642 33.5101 75.3642 33.8285C75.3642 33.9691 75.3386 34.1079 75.2891 34.2417C75.2396 34.3755 75.1013 34.5178 74.8743 34.6686C75.3403 34.8735 75.5725 35.2258 75.5725 35.7237C75.5725 36.0913 75.4478 36.386 75.2003 36.6078C74.9528 36.8314 74.6336 36.9415 74.2427 36.9415C73.9969 36.9415 73.7766 36.8975 73.582 36.8094C73.3874 36.7213 73.1741 36.5299 72.9453 36.2369L73.5274 35.8135Z" fill="#5499D1"/>
<path d="M79.1971 32.8936V36.8416H78.4392V34.3688L76.9558 36.8416H76.2969V32.8936H77.0548V35.446L78.5587 32.8936H79.1971Z" fill="#5499D1"/>
<path d="M80.1035 32.8936H80.8717V34.3823H82.1998V32.8936H82.9662V36.8416H82.1998V35.1106H80.8717V36.8416H80.1035V32.8936Z" fill="#5499D1"/>
<path d="M87.3045 32.7937C87.8679 32.7937 88.3509 32.9953 88.7572 33.4C89.1618 33.8048 89.3649 34.2977 89.3649 34.8786C89.3649 35.4545 89.1652 35.9423 88.7658 36.342C88.3663 36.7417 87.8815 36.9399 87.3114 36.9399C86.7139 36.9399 86.2171 36.7349 85.8228 36.3251C85.4268 35.9152 85.2305 35.4291 85.2305 34.8651C85.2305 34.4874 85.3226 34.1402 85.507 33.8235C85.6914 33.5067 85.944 33.2561 86.2666 33.0698C86.5859 32.8869 86.9324 32.7937 87.3045 32.7937ZM87.296 33.5288C86.9273 33.5288 86.6183 33.6558 86.3674 33.9098C86.1164 34.1639 85.9901 34.4874 85.9901 34.8786C85.9901 35.3156 86.1489 35.6611 86.4647 35.9152C86.7105 36.1133 86.9921 36.2133 87.3097 36.2133C87.6681 36.2133 87.9754 36.0846 88.228 35.8271C88.4807 35.5697 88.607 35.2513 88.607 34.8736C88.607 34.4976 88.479 34.1791 88.2246 33.92C87.9703 33.6609 87.6613 33.5288 87.296 33.5288Z" fill="#5499D1"/>
<path d="M90.0762 32.8936H92.9389V36.8416H92.1724V33.5964H90.8443V36.8416H90.0762V32.8936Z" fill="#5499D1"/>
<path d="M93.4548 32.8936H95.6535V33.6337H94.928V36.8416H94.1598V33.6337H93.4531V32.8936H93.4548Z" fill="#5499D1"/>
<path d="M99.0702 32.8936V36.8416H98.3123V34.3688L96.8289 36.8416H96.1699V32.8936H96.9279V35.446L98.4318 32.8936H99.0702Z" fill="#5499D1"/>
<path d="M101.722 35.1106H101.468C101.102 35.1106 100.831 35.092 100.657 35.0547C100.483 35.0174 100.315 34.9378 100.158 34.8142C99.9995 34.6923 99.8885 34.5432 99.8219 34.3688C99.757 34.1943 99.7246 33.964 99.7246 33.676V32.8936H100.493V33.6642C100.493 33.9318 100.542 34.1198 100.64 34.2248C100.737 34.3298 100.945 34.3823 101.263 34.3823H101.722V32.8936H102.485V36.8416H101.722V35.1106Z" fill="#5499D1"/>
<path d="M103.396 32.8936H105.57V33.6286H104.149V34.3434H105.57V35.0649H104.149V36.1031H105.57V36.8416H103.396V32.8936Z" fill="#5499D1"/>
<path d="M109.933 33.5863L109.403 34.0876C109.043 33.7099 108.637 33.5203 108.186 33.5203C107.806 33.5203 107.486 33.649 107.225 33.9064C106.964 34.1638 106.834 34.4823 106.834 34.86C106.834 35.1225 106.892 35.3579 107.007 35.5612C107.123 35.7661 107.285 35.9253 107.497 36.0422C107.708 36.159 107.942 36.2166 108.2 36.2166C108.42 36.2166 108.62 36.176 108.803 36.0947C108.985 36.0134 109.185 35.8643 109.403 35.6492L109.917 36.181C109.624 36.4656 109.345 36.6637 109.084 36.7738C108.823 36.8839 108.524 36.9381 108.188 36.9381C107.57 36.9381 107.063 36.7433 106.669 36.3538C106.274 35.9642 106.078 35.4663 106.078 34.8566C106.078 34.4636 106.169 34.113 106.348 33.8065C106.527 33.4999 106.785 33.2543 107.119 33.068C107.454 32.8817 107.814 32.7886 108.2 32.7886C108.528 32.7886 108.844 32.858 109.147 32.9952C109.451 33.1375 109.712 33.3339 109.933 33.5863Z" fill="#5499D1"/>
<path d="M110.602 32.8936H111.368V34.2553L112.449 32.8936H113.358L111.969 34.655L113.493 36.8416H112.595L111.368 35.0869V36.8416H110.602V32.8936Z" fill="#5499D1"/>
<path d="M116.93 32.8936V36.8416H116.172V34.3688L114.688 36.8416H114.029V32.8936H114.787V35.446L116.291 32.8936H116.93Z" fill="#5499D1"/>
<path d="M117.58 32.8936H118.432L119.268 34.1604L120.106 32.8936H120.958L119.695 34.8074L121.037 36.8416H120.185L119.268 35.4527L118.353 36.8416H117.496L118.843 34.8057L117.58 32.8936Z" fill="#5499D1"/>
<path d="M123.154 32.8936H126.017V36.8416H125.251V33.5964H123.922V36.8416H123.154V32.8936Z" fill="#5499D1"/>
<path d="M126.922 32.8936H127.726C128.161 32.8936 128.473 32.9325 128.666 33.0138C128.857 33.0934 129.009 33.2221 129.12 33.4C129.231 33.5778 129.286 33.7912 129.286 34.0402C129.286 34.3163 129.212 34.5449 129.067 34.7278C128.922 34.9107 128.726 35.0378 128.477 35.1089C128.33 35.1496 128.064 35.1716 127.678 35.1716V36.8432H126.92V32.8936H126.922ZM127.68 34.4365H127.92C128.11 34.4365 128.241 34.423 128.315 34.3959C128.388 34.3688 128.446 34.3247 128.489 34.2621C128.531 34.1994 128.552 34.1249 128.552 34.0368C128.552 33.8844 128.492 33.7726 128.373 33.7031C128.286 33.6506 128.125 33.6252 127.891 33.6252H127.678V34.4365H127.68Z" fill="#5499D1"/>
<path d="M132.926 32.8936V36.8416H132.168V34.3688L130.684 36.8416H130.025V32.8936H130.783V35.446L132.287 32.8936H132.926Z" fill="#5499D1"/>
<path d="M133.832 36.8416V32.8936H135.913V33.6269H134.59V34.384H134.756C135.092 34.384 135.365 34.4213 135.578 34.4941C135.792 34.5669 135.968 34.7058 136.109 34.909C136.251 35.1123 136.321 35.3528 136.321 35.6306C136.321 35.9066 136.268 36.1251 136.16 36.2894C136.053 36.4537 135.908 36.5858 135.72 36.6891C135.532 36.7924 135.274 36.8432 134.945 36.8432H133.832V36.8416ZM134.59 35.0547V36.1251H134.779C135.126 36.1251 135.344 36.0811 135.437 35.9913C135.529 35.9016 135.575 35.7813 135.575 35.6289C135.575 35.2461 135.298 35.0547 134.747 35.0547H134.59Z" fill="#5499D1"/>
<path d="M138.865 32.7937C139.428 32.7937 139.911 32.9953 140.318 33.4C140.722 33.8048 140.925 34.2977 140.925 34.8786C140.925 35.4545 140.726 35.9423 140.326 36.342C139.927 36.7417 139.442 36.9399 138.872 36.9399C138.274 36.9399 137.778 36.7349 137.383 36.3251C136.987 35.9152 136.791 35.4291 136.791 34.8651C136.791 34.4874 136.883 34.1402 137.068 33.8235C137.252 33.5067 137.505 33.2561 137.827 33.0698C138.146 32.8869 138.495 32.7937 138.865 32.7937ZM138.858 33.5288C138.49 33.5288 138.181 33.6558 137.93 33.9098C137.679 34.1639 137.552 34.4874 137.552 34.8786C137.552 35.3156 137.711 35.6611 138.027 35.9152C138.273 36.1133 138.554 36.2133 138.872 36.2133C139.23 36.2133 139.538 36.0846 139.79 35.8271C140.043 35.5697 140.169 35.2513 140.169 34.8736C140.169 34.4976 140.041 34.1791 139.787 33.92C139.533 33.6609 139.222 33.5288 138.858 33.5288Z" fill="#5499D1"/>
<path d="M141.636 32.8936H142.44C142.876 32.8936 143.188 32.9325 143.381 33.0138C143.572 33.0934 143.724 33.2221 143.835 33.4C143.946 33.5778 144.001 33.7912 144.001 34.0402C144.001 34.3163 143.927 34.5449 143.782 34.7278C143.637 34.9107 143.441 35.0378 143.192 35.1089C143.045 35.1496 142.778 35.1716 142.393 35.1716V36.8432H141.635V32.8936H141.636ZM142.394 34.4365H142.635C142.825 34.4365 142.956 34.423 143.029 34.3959C143.103 34.3688 143.161 34.3247 143.204 34.2621C143.246 34.1994 143.267 34.1249 143.267 34.0368C143.267 33.8844 143.207 33.7726 143.087 33.7031C143 33.6506 142.84 33.6252 142.606 33.6252H142.393V34.4365H142.394Z" fill="#5499D1"/>
<path d="M146.623 32.7937C147.186 32.7937 147.669 32.9953 148.076 33.4C148.48 33.8048 148.683 34.2977 148.683 34.8786C148.683 35.4545 148.484 35.9423 148.084 36.342C147.685 36.7417 147.2 36.9399 146.63 36.9399C146.032 36.9399 145.535 36.7349 145.141 36.3251C144.745 35.9152 144.549 35.4291 144.549 34.8651C144.549 34.4874 144.641 34.1402 144.825 33.8235C145.01 33.5067 145.262 33.2561 145.585 33.0698C145.904 32.8869 146.251 32.7937 146.623 32.7937ZM146.614 33.5288C146.246 33.5288 145.937 33.6558 145.686 33.9098C145.435 34.1639 145.308 34.4874 145.308 34.8786C145.308 35.3156 145.467 35.6611 145.783 35.9152C146.029 36.1133 146.311 36.2133 146.628 36.2133C146.986 36.2133 147.294 36.0846 147.546 35.8271C147.799 35.5697 147.925 35.2513 147.925 34.8736C147.925 34.4976 147.797 34.1791 147.543 33.92C147.289 33.6609 146.98 33.5288 146.614 33.5288Z" fill="#5499D1"/>
<path d="M149.396 36.8416V32.8936H150.023C150.387 32.8936 150.651 32.9173 150.82 32.963C151.059 33.0257 151.249 33.1425 151.389 33.3119C151.53 33.4813 151.6 33.6828 151.6 33.9132C151.6 34.0639 151.568 34.1994 151.505 34.323C151.44 34.445 151.337 34.5601 151.192 34.6685C151.435 34.782 151.611 34.9226 151.723 35.092C151.836 35.2613 151.89 35.4612 151.89 35.6915C151.89 35.9134 151.832 36.115 151.716 36.2979C151.6 36.4808 151.452 36.6163 151.269 36.7078C151.086 36.7975 150.836 36.8432 150.513 36.8432H149.396V36.8416ZM150.154 33.61V34.4416H150.32C150.504 34.4416 150.643 34.4026 150.731 34.3264C150.822 34.2502 150.866 34.1452 150.866 34.0131C150.866 33.8894 150.824 33.7912 150.738 33.7184C150.653 33.6456 150.523 33.61 150.349 33.61H150.154ZM150.154 35.1123V36.1234H150.344C150.658 36.1234 150.87 36.0845 150.981 36.0049C151.09 35.927 151.145 35.8118 151.145 35.661C151.145 35.4917 151.08 35.3562 150.952 35.2579C150.824 35.1597 150.61 35.1106 150.311 35.1106H150.154V35.1123Z" fill="#5499D1"/>
<path d="M11.463 35.9761C12.5774 35.9761 13.4808 35.0798 13.4808 33.9741C13.4808 32.8685 12.5774 31.9722 11.463 31.9722C10.3487 31.9722 9.44531 32.8685 9.44531 33.9741C9.44531 35.0798 10.3487 35.9761 11.463 35.9761Z" fill="#F9E585"/>
<path d="M42.4154 35.1004C34.2182 43.2336 21.0022 43.3504 12.6599 35.451C12.3048 35.6458 11.8968 35.7576 11.4632 35.7576C10.0959 35.7576 8.98799 34.6584 8.98799 33.3017C8.98799 32.7123 9.19795 32.172 9.54619 31.7486C7.636 28.866 6.51277 25.6208 6.17477 22.3114C6.02455 22.3622 5.86238 22.391 5.69338 22.391C4.87058 22.391 4.20313 21.7287 4.20313 20.9124C4.20313 20.096 4.87058 19.4338 5.69338 19.4338C5.82483 19.4338 5.95285 19.4524 6.07406 19.4846C6.23964 14.3053 8.31541 9.17507 12.2997 5.22199C13.8497 3.68412 15.5772 2.43417 17.4191 1.47046C13.6226 2.5341 10.0395 4.5479 7.05219 7.51186C-2.27 16.7611 -2.27 31.7571 7.05219 41.008C16.3744 50.259 31.4886 50.2573 40.8125 41.008C44.9214 36.9313 47.2191 31.7385 47.7056 26.4118C46.7155 29.5875 44.9538 32.5836 42.4154 35.1004Z" fill="#F9E585"/>
<path d="M5.69347 22.452C6.35153 22.452 6.88499 21.9228 6.88499 21.2698C6.88499 20.6169 6.35153 20.0876 5.69347 20.0876C5.03541 20.0876 4.50195 20.6169 4.50195 21.2698C4.50195 21.9228 5.03541 22.452 5.69347 22.452Z" fill="#F9E585"/>
<path d="M47.7036 5.44897C47.9204 6.86998 49.0454 7.98613 50.4776 8.20123C49.0454 8.41633 47.9204 9.53247 47.7036 10.9535C47.4868 9.53247 46.3619 8.41633 44.9297 8.20123C46.3619 7.98782 47.4868 6.87168 47.7036 5.44897Z" fill="#F9E585"/>
<path d="M18.6354 7.40186C18.7463 8.12845 19.3216 8.69922 20.0539 8.80931C19.3216 8.9194 18.7463 9.49018 18.6354 10.2168C18.5244 9.49018 17.9491 8.9194 17.2168 8.80931C17.9491 8.70092 18.5244 8.13014 18.6354 7.40186Z" fill="#F9E585"/>
<path d="M4.25449 0.0595703C4.36545 0.786165 4.94073 1.35694 5.67305 1.46703C4.94073 1.57712 4.36545 2.14789 4.25449 2.87449C4.14354 2.14789 3.56826 1.57712 2.83594 1.46703C3.56826 1.35694 4.14183 0.786165 4.25449 0.0595703Z" fill="#F9E585"/>
<path d="M48.8531 38.6521C49.0665 40.0494 50.171 41.1452 51.5793 41.3569C50.171 41.5686 49.0665 42.6645 48.8531 44.0618C48.6397 42.6645 47.5353 41.5686 46.127 41.3569C47.5353 41.1452 48.6397 40.0494 48.8531 38.6521Z" fill="#F9E585"/>
<path d="M47.7048 16.9644C47.8277 17.7706 48.4661 18.404 49.2787 18.5259C48.4661 18.6479 47.8277 19.2813 47.7048 20.0875C47.5819 19.2813 46.9434 18.6479 46.1309 18.5259C46.9434 18.4023 47.5819 17.7706 47.7048 16.9644Z" fill="#F9E585"/>
<path d="M43.7871 19.2576L40.9415 11.0568C40.8834 10.8891 40.6974 10.7993 40.5284 10.8569L39.5024 11.2075C39.3966 11.2431 39.3232 11.3278 39.2942 11.4277L32.0631 13.8988L31.4981 12.2712L33.8675 11.4616C33.9477 11.5801 34.1013 11.6377 34.243 11.5886L35.2433 11.2465C35.4123 11.1889 35.5028 11.0043 35.4448 10.8366L34.6066 8.42139C34.5486 8.25372 34.3625 8.16395 34.1935 8.22154L33.1949 8.56366C33.0259 8.62125 32.9354 8.80586 32.9935 8.97354L28.3793 10.5504C28.2649 10.5893 28.1881 10.6876 28.1676 10.7976C28.154 10.801 28.1386 10.8027 28.125 10.8078L26.0492 11.5175C25.8802 11.575 25.7897 11.7597 25.8477 11.9273L26.3957 13.5042C26.4538 13.6718 26.6398 13.7616 26.8088 13.704L28.8846 12.9944C28.8982 12.9893 28.9119 12.9825 28.9239 12.9757C29.0092 13.0503 29.1304 13.0807 29.2448 13.0418L29.3728 12.9978L29.9378 14.6254L25.7607 16.0532C25.3373 16.1971 25.1103 16.6595 25.2571 17.0796L25.38 17.4352L23.8164 17.9687L14.9039 21.014C14.5198 21.1461 14.3132 21.5645 14.4464 21.9472L14.7724 22.8889L14.7758 22.9008L14.3218 23.0566L8.14736 25.1653C8.05518 25.1229 7.94593 25.1128 7.84351 25.1483L6.51201 25.6039L6.09378 24.3963C6.0511 24.2727 5.94356 24.1897 5.82065 24.1677C5.82065 24.1626 5.81895 24.1592 5.81724 24.1541C5.84455 24.1338 5.85991 24.1152 5.85309 24.0999C5.84796 24.0864 5.82748 24.0796 5.79675 24.0796L5.76432 23.9864C5.78822 23.9678 5.80188 23.9492 5.79675 23.9356C5.79163 23.9221 5.76944 23.9153 5.73871 23.9153L5.48095 23.1701C5.41608 22.9821 5.21465 22.8957 5.032 22.977L4.97054 23.0041C4.78959 23.0854 4.48233 23.1904 4.28772 23.2378L4.21603 23.2548C4.02142 23.3022 3.91729 23.4936 3.98216 23.6816L4.24163 24.4285C4.22115 24.4454 4.21091 24.4624 4.21432 24.4742C4.21944 24.4861 4.23822 24.4928 4.26382 24.4928L4.29796 24.5928C4.27748 24.6097 4.26553 24.6267 4.27065 24.6385C4.27577 24.6521 4.29626 24.6588 4.32528 24.6588C4.32698 24.6639 4.32869 24.669 4.33211 24.6724C4.25017 24.7638 4.21603 24.896 4.2587 25.0196L4.67864 26.2272C4.67864 26.2289 4.68034 26.2289 4.68034 26.2306C4.48574 26.3119 4.38332 26.5321 4.45331 26.7336L5.30854 29.1979C5.38194 29.408 5.6141 29.5214 5.82748 29.4486L8.96504 28.3765C9.06917 28.3409 9.14769 28.2681 9.19378 28.1766L15.3682 26.0663L15.8223 25.9105L16.1534 26.864C16.2866 27.2451 16.7082 27.45 17.094 27.3179L21.5579 25.7919V27.76H19.7707C19.5453 27.76 19.3627 27.9429 19.3627 28.1648V28.7525C19.3627 28.9761 19.5453 29.1573 19.7707 29.1573H21.8823L16.7167 42.5629C16.7099 42.5798 16.7065 42.5967 16.7031 42.612L14.6512 47.9353H16.1756L21.0834 35.2072L21.0748 35.2038L23.1233 29.8873V34.4772V38.9587V47.9336H24.547V34.484H24.5453V29.9601L29.5964 43.0727C29.6084 43.1032 29.6254 43.1286 29.6459 43.1506L31.493 47.942H33.0174L27.915 34.7075L27.8979 34.7143L25.759 29.1624H27.8962C28.1215 29.1624 28.3042 28.9795 28.3042 28.7576V28.1699C28.3042 27.9463 28.1198 27.7651 27.8962 27.7651H26.2114V24.2032L27.041 23.9204L27.4831 23.7696L27.5667 23.7408L27.5633 23.7324L27.6897 24.0965C27.8348 24.5166 28.3008 24.7418 28.7241 24.5962L42.2593 19.9707C42.343 20.0317 42.4539 20.0537 42.5598 20.0181L43.5857 19.6675C43.7547 19.6099 43.8452 19.4253 43.7871 19.2576Z" fill="#5499D1"/>
</g>
<defs>
<clipPath id="clip0_62_2697">
<rect width="152" height="48" fill="white"/>
</clipPath>
</defs>
</svg>
