<svg width="77" height="24" viewBox="0 0 77 24" fill="none" xmlns="http://www.w3.org/2000/svg">
<g clip-path="url(#clip0_62_2811)">
<path d="M12 2C9.89206 1.99989 7.86926 2.83176 6.37124 4.31479C4.87323 5.79782 4.02108 7.81216 4 9.92C4 15.4 11.05 21.5 11.35 21.76C11.5311 21.9149 11.7616 22.0001 12 22.0001C12.2384 22.0001 12.4689 21.9149 12.65 21.76C13 21.5 20 15.4 20 9.92C19.9789 7.81216 19.1268 5.79782 17.6288 4.31479C16.1307 2.83176 14.1079 1.99989 12 2ZM12 13C11.3078 13 10.6311 12.7947 10.0555 12.4101C9.47993 12.0256 9.03133 11.4789 8.76642 10.8394C8.50151 10.1998 8.4322 9.49612 8.56725 8.81718C8.7023 8.13825 9.03564 7.51461 9.52513 7.02513C10.0146 6.53564 10.6382 6.2023 11.3172 6.06725C11.9961 5.9322 12.6998 6.00151 13.3394 6.26642C13.9789 6.53133 14.5256 6.97993 14.9101 7.5555C15.2947 8.13108 15.5 8.80776 15.5 9.5C15.5 10.4283 15.1312 11.3185 14.4749 11.9749C13.8185 12.6312 12.9283 13 12 13Z" fill="#747883"/>
</g>
<path d="M31.87 9.72L31.24 8.362V17H30.26V7.2H31.576L34.684 13.136L37.792 7.2H39.08V17H38.1V8.362L37.47 9.72L35.16 14.13H34.18L31.87 9.72ZM44.184 17.098C43.7173 17.098 43.2927 17.0233 42.91 16.874C42.5367 16.7247 42.2147 16.51 41.944 16.23C41.6733 15.95 41.4633 15.6093 41.314 15.208C41.174 14.7973 41.104 14.3307 41.104 13.808V13.192C41.104 12.6787 41.1787 12.2213 41.328 11.82C41.4773 11.4093 41.6827 11.064 41.944 10.784C42.2147 10.4947 42.5367 10.2753 42.91 10.126C43.2927 9.97667 43.7173 9.902 44.184 9.902C44.6507 9.902 45.0707 9.97667 45.444 10.126C45.8267 10.2753 46.1533 10.49 46.424 10.77C46.6947 11.05 46.9 11.3953 47.04 11.806C47.1893 12.2167 47.264 12.6787 47.264 13.192V13.808C47.264 14.3213 47.1893 14.7833 47.04 15.194C46.8907 15.5953 46.6807 15.9407 46.41 16.23C46.1487 16.51 45.8267 16.7247 45.444 16.874C45.0613 17.0233 44.6413 17.098 44.184 17.098ZM44.184 16.23C44.8187 16.23 45.332 16.0247 45.724 15.614C46.116 15.194 46.312 14.592 46.312 13.808V13.192C46.312 12.4173 46.1113 11.82 45.71 11.4C45.318 10.98 44.8093 10.77 44.184 10.77C43.5493 10.77 43.036 10.98 42.644 11.4C42.252 11.8107 42.056 12.408 42.056 13.192V13.808C42.056 14.5827 42.252 15.18 42.644 15.6C43.0453 16.02 43.5587 16.23 44.184 16.23ZM51.8113 17.098C51.3633 17.098 50.9526 17.0233 50.5793 16.874C50.2153 16.7247 49.8979 16.51 49.6273 16.23C49.3659 15.95 49.1606 15.6093 49.0113 15.208C48.8713 14.7973 48.8013 14.3307 48.8013 13.808V13.192C48.8013 12.6787 48.8713 12.2213 49.0113 11.82C49.1606 11.4093 49.3659 11.064 49.6273 10.784C49.8979 10.4947 50.2153 10.2753 50.5793 10.126C50.9526 9.97667 51.3633 9.902 51.8113 9.902C52.2033 9.902 52.5486 9.95333 52.8473 10.056C53.1553 10.1587 53.4213 10.3033 53.6453 10.49C53.8786 10.6673 54.0653 10.8773 54.2053 11.12C54.3546 11.3627 54.4666 11.6193 54.5413 11.89H53.5613C53.4213 11.5727 53.2159 11.3067 52.9453 11.092C52.6839 10.8773 52.3059 10.77 51.8113 10.77C51.2139 10.77 50.7193 10.98 50.3273 11.4C49.9446 11.8107 49.7533 12.408 49.7533 13.192V13.808C49.7533 14.1907 49.8046 14.536 49.9073 14.844C50.0099 15.1427 50.1546 15.3947 50.3413 15.6C50.5279 15.8053 50.7426 15.964 50.9853 16.076C51.2373 16.1787 51.5126 16.23 51.8113 16.23C52.3153 16.23 52.6979 16.118 52.9593 15.894C53.2206 15.67 53.4213 15.362 53.5613 14.97H54.5413C54.4013 15.586 54.1073 16.0947 53.6593 16.496C53.2113 16.8973 52.5953 17.098 51.8113 17.098ZM58.4596 13.78H57.2136V17H56.2896V10H57.2136V12.94H58.4596L60.4616 10H61.6096L59.2996 13.374L61.8896 17H60.7416L58.4596 13.78ZM63.4263 10H66.0163C66.8657 10 67.4863 10.1727 67.8783 10.518C68.2703 10.8633 68.4663 11.33 68.4663 11.918C68.4663 12.2167 68.3917 12.492 68.2423 12.744C68.093 12.996 67.869 13.206 67.5703 13.374C67.9623 13.5327 68.2563 13.7567 68.4523 14.046C68.6483 14.326 68.7463 14.6433 68.7463 14.998C68.7463 15.6233 68.5503 16.1133 68.1583 16.468C67.7663 16.8227 67.1457 17 66.2963 17H63.4263V10ZM64.3503 13.85V16.16H66.2963C66.847 16.16 67.2343 16.062 67.4583 15.866C67.6823 15.67 67.7943 15.3807 67.7943 14.998C67.7943 14.6247 67.6823 14.34 67.4583 14.144C67.2343 13.948 66.847 13.85 66.2963 13.85H64.3503ZM64.3503 10.84V13.01H66.0163C66.567 13.01 66.9543 12.9167 67.1783 12.73C67.4023 12.534 67.5143 12.2633 67.5143 11.918C67.5143 11.582 67.4023 11.3207 67.1783 11.134C66.9543 10.938 66.567 10.84 66.0163 10.84H64.3503ZM72.3798 17.098C71.6798 17.098 71.1431 16.9207 70.7698 16.566C70.3964 16.202 70.2098 15.7027 70.2098 15.068C70.2098 14.732 70.2611 14.4287 70.3638 14.158C70.4758 13.878 70.6484 13.6447 70.8818 13.458C71.1244 13.2713 71.4324 13.1267 71.8058 13.024C72.1791 12.9213 72.6271 12.87 73.1498 12.87H74.7458V12.24C74.7458 11.736 74.6198 11.3673 74.3678 11.134C74.1251 10.8913 73.7191 10.77 73.1498 10.77C72.6364 10.77 72.2491 10.8727 71.9878 11.078C71.7358 11.274 71.5911 11.5447 71.5538 11.89H70.5598C70.5784 11.6007 70.6438 11.3347 70.7558 11.092C70.8678 10.8493 71.0311 10.6393 71.2458 10.462C71.4604 10.2847 71.7264 10.1493 72.0438 10.056C72.3611 9.95333 72.7298 9.902 73.1498 9.902C73.9804 9.902 74.6058 10.1073 75.0258 10.518C75.4551 10.9287 75.6698 11.5027 75.6698 12.24V17H74.9558L74.8158 15.684C74.5731 16.132 74.2371 16.482 73.8078 16.734C73.3878 16.9767 72.9118 17.098 72.3798 17.098ZM72.4498 16.23C72.7671 16.23 73.0658 16.174 73.3458 16.062C73.6258 15.9407 73.8684 15.782 74.0738 15.586C74.2884 15.3807 74.4518 15.1473 74.5638 14.886C74.6851 14.6153 74.7458 14.3307 74.7458 14.032V13.71H73.1498C72.4311 13.71 71.9178 13.836 71.6098 14.088C71.3111 14.34 71.1618 14.6667 71.1618 15.068C71.1618 15.4227 71.2691 15.7073 71.4838 15.922C71.7078 16.1273 72.0298 16.23 72.4498 16.23Z" fill="#15191C"/>
<defs>
<clipPath id="clip0_62_2811">
<rect width="24" height="24" fill="white"/>
</clipPath>
</defs>
</svg>
